<?xml version="1.0" standalone="no"?>
<!DOCTYPE svg PUBLIC "-//W3C//DTD SVG 20010904//EN"
 "http://www.w3.org/TR/2001/REC-SVG-20010904/DTD/svg10.dtd">
<svg version="1.0" xmlns="http://www.w3.org/2000/svg"
 width="700.000000pt" height="700.000000pt" viewBox="0 0 700.000000 700.000000"
 preserveAspectRatio="xMidYMid meet">
<metadata>
Created by potrace 1.14, written by Peter Selinger 2001-2017
</metadata>
<g transform="translate(0.000000,700.000000) scale(0.100000,-0.100000)"
fill="#000000" stroke="none">
<path d="M651 6984 c-314 -68 -576 -394 -636 -791 -22 -148 -22 -5238 0 -5386
51 -337 241 -620 500 -743 142 -68 -76 -64 2985 -64 3083 0 2845 -5 2995 69
262 130 445 414 494 766 8 53 11 885 11 2668 0 2236 -2 2605 -15 2690 -60 401
-322 725 -641 792 -101 21 -5594 21 -5693 -1z m3034 -478 c264 -10 521 -74
737 -182 250 -125 477 -347 644 -630 185 -314 416 -924 519 -1369 114 -496
162 -944 152 -1436 -9 -460 -57 -729 -173 -966 -65 -136 -149 -232 -241 -279
l-58 -29 -547 -3 -548 -3 0 200 0 199 63 50 c89 71 234 223 305 320 161 217
273 488 322 776 l16 99 70 1 c87 1 134 29 183 105 131 203 150 683 34 821 -47
56 -115 27 -180 -75 -15 -25 -31 -45 -35 -45 -12 0 -10 65 7 210 21 176 16
204 -52 291 -198 252 -669 533 -1205 717 -214 74 -187 76 -259 -20 -85 -113
-283 -309 -400 -396 -53 -39 -182 -126 -285 -193 -104 -67 -241 -161 -304
-208 -121 -90 -284 -247 -360 -345 l-45 -59 0 -266 c1 -276 12 -396 55 -591
80 -358 235 -664 468 -925 77 -87 225 -224 268 -248 11 -6 14 -47 14 -213 l0
-205 -557 3 -558 3 -63 34 c-177 96 -300 336 -361 703 -43 258 -57 543 -41
848 39 780 180 1411 471 2104 308 732 696 1071 1354 1181 95 16 366 34 430 28
17 -1 89 -4 160 -7z"/>
</g>
</svg>
