<svg width="40" height="40" viewBox="0 0 40 40" fill="none" xmlns="http://www.w3.org/2000/svg">
<path d="M20 40C31.0457 40 40 31.0457 40 20C40 8.95432 31.0457 0 20 0C8.95432 0 0 8.95432 0 20C0 31.0457 8.95432 40 20 40Z" fill="#34AADF"/>
<path d="M6.88615 19.9575C6.88615 19.9575 18.0905 15.2744 21.9763 13.6254C23.466 12.9658 28.5176 10.8551 28.5176 10.8551C28.5176 10.8551 30.8492 9.93169 30.6548 12.1743C30.59 13.0977 30.0719 16.3297 29.5539 19.8256C28.7766 24.7725 27.9347 30.1812 27.9347 30.1812C27.9347 30.1812 27.8052 31.6983 26.7042 31.9621C25.6032 32.2259 23.7897 31.0387 23.466 30.7748C23.2068 30.577 18.6086 27.6088 16.9247 26.1576C16.4713 25.7619 15.9532 24.9704 16.9894 24.047C19.321 21.8703 22.1058 19.166 23.7897 17.4511C24.5669 16.6595 25.3441 14.8127 22.1058 17.0552C17.5076 20.2873 12.974 23.3214 12.974 23.3214C12.974 23.3214 11.9378 23.981 9.99486 23.3873C8.05185 22.7938 5.78508 22.0022 5.78508 22.0022C5.78508 22.0022 4.23081 21.0128 6.88615 19.9575V19.9575Z" fill="white"/>
</svg>
