<svg width="20" height="20" viewBox="0 0 20 20" fill="none" xmlns="http://www.w3.org/2000/svg">
<path d="M17.2234 12.746V17.3147H2.77665V12.746H0V18.6576C0 19.3989 0.620711 20 1.39039 20H18.6096C19.3786 20 20 19.3995 20 18.6576V12.746H17.2234Z" fill="#17141B"/>
<path d="M9.74598 12.293L5.77067 7.64628C5.77067 7.64628 5.16582 7.09387 5.82171 7.09387C6.47759 7.09387 8.06179 7.09387 8.06179 7.09387C8.06179 7.09387 8.06179 6.72227 8.06179 6.14918C8.06179 4.51531 8.06179 1.5418 8.06179 0.329575C8.06179 0.329575 7.97282 0 8.48594 0C9.0032 0 11.2688 0 11.6391 0C12.0088 0 12.0005 0.277537 12.0005 0.277537C12.0005 1.45307 12.0005 4.52932 12.0005 6.10982C12.0005 6.62219 12.0005 6.95444 12.0005 6.95444C12.0005 6.95444 13.2709 6.95444 14.0682 6.95444C14.8641 6.95444 14.2648 7.53286 14.2648 7.53286C14.2648 7.53286 10.8826 11.876 10.4108 12.3317C10.0715 12.662 9.74598 12.293 9.74598 12.293Z" fill="#17141B"/>
</svg>
