<svg width="40" height="40" viewBox="0 0 40 40" fill="none" xmlns="http://www.w3.org/2000/svg">
<path d="M20 40C31.0457 40 40 31.0457 40 20C40 8.95432 31.0457 0 20 0C8.95432 0 0 8.95432 0 20C0 31.0457 8.95432 40 20 40Z" fill="#5181B8"/>
<path fill-rule="evenodd" clip-rule="evenodd" d="M32.0926 15.095C32.2709 14.5006 32.0926 14.0845 31.2604 14.0845H28.4863C27.773 14.0845 27.456 14.461 27.2776 14.8771C27.2776 14.8771 25.8708 18.3248 23.8695 20.5441C23.2156 21.198 22.9382 21.3961 22.5816 21.3961C22.4032 21.3961 22.1456 21.198 22.1456 20.6035V15.095C22.1456 14.3817 21.9475 14.0845 21.353 14.0845H16.9938C16.5579 14.0845 16.2805 14.4213 16.2805 14.7185C16.2805 15.3922 17.2712 15.5508 17.3901 17.4134V21.4952C17.3901 22.3869 17.2316 22.5454 16.8749 22.5454C15.9436 22.5454 13.6451 19.0976 12.2977 15.1347C12.0203 14.4015 11.7627 14.0845 11.0494 14.0845H8.27533C7.48274 14.0845 7.32422 14.461 7.32422 14.8771C7.32422 15.6102 8.25551 19.2561 11.7033 24.0711C14.0018 27.3604 17.2316 29.1437 20.1642 29.1437C21.9277 29.1437 22.1456 28.7474 22.1456 28.0737V25.577C22.1456 24.7845 22.3041 24.6259 22.8788 24.6259C23.2949 24.6259 23.9884 24.8241 25.633 26.4093C27.5154 28.2917 27.8325 29.1437 28.8826 29.1437H31.6567C32.4493 29.1437 32.8456 28.7474 32.6078 27.9746C32.3502 27.2019 31.4585 26.0724 30.2697 24.725C29.6158 23.9522 28.6449 23.1398 28.3674 22.7237C27.9513 22.1887 28.0702 21.9509 28.3674 21.4952C28.3674 21.4754 31.7558 16.7198 32.0926 15.095V15.095Z" fill="white"/>
</svg>
