<svg width="20" height="20" viewBox="0 0 20 20" fill="none" xmlns="http://www.w3.org/2000/svg">
<path d="M18.3037 2.14596C15.6653 3.23873 4.35197 7.92484 1.22611 9.20203C-0.870234 10.0201 0.356993 10.7872 0.356993 10.7872C0.356993 10.7872 2.14648 11.4007 3.68056 11.8608C5.21443 12.321 6.03251 11.8098 6.03251 11.8098L13.2419 6.95237C15.7984 5.21392 15.1849 6.64551 14.5712 7.25923C13.2419 8.58874 11.0433 10.6849 9.20254 12.3723C8.38447 13.0881 8.7934 13.7016 9.15151 14.0084C10.4808 15.1334 14.1112 17.4343 14.3156 17.5876C15.3957 18.3523 17.5204 19.453 17.8435 17.1274L19.1218 9.09996C19.5309 6.39011 19.9399 3.88462 19.9909 3.16883C20.1444 1.43017 18.3037 2.14596 18.3037 2.14596Z" fill="#1B92D1"/>
</svg>
