<svg width="40" height="40" viewBox="0 0 40 40" fill="none" xmlns="http://www.w3.org/2000/svg">
<path d="M20 40C30.9333 40 40 31.2 40 20C40 9.06667 31.2 0 20 0C9.06667 0 0 8.8 0 20C0 30.9333 8.8 40 20 40Z" fill="#DB0924"/>
<path d="M11.1999 10.9334V17.6001C12.2666 16.2667 13.5999 15.7334 14.9333 15.7334C15.7333 15.7334 16.2666 16.0001 16.7999 16.2667C17.3333 16.5334 17.8666 16.8001 18.1333 17.3334C18.3999 17.8667 18.6666 18.1334 18.6666 18.6667C18.6666 19.2001 18.9333 20.0001 18.9333 21.0667V28.2667H15.7333V21.8667C15.7333 20.5334 15.7333 19.7334 15.4666 19.4667C15.4666 19.2001 15.1999 18.9334 14.9333 18.6667C14.6666 18.4001 14.1333 18.4001 13.8666 18.4001C13.3333 18.4001 12.7999 18.6667 12.5333 18.6667C11.9999 18.9334 11.7333 19.2001 11.7333 19.7334C11.4666 20.2667 11.4666 21.0667 11.4666 22.1334V28.2667H8.2666V10.6667H11.4666L11.1999 10.9334Z" fill="#EBFFFF"/>
<path d="M23.7331 10.9334V17.6001C24.7998 16.2667 26.1331 15.7334 27.4665 15.7334C28.2665 15.7334 28.7998 16.0001 29.3331 16.2667C29.8665 16.5334 30.3998 16.8001 30.6665 17.3334C30.9331 17.8667 31.1998 18.1334 31.1998 18.6667C31.1998 19.2001 31.4665 20.0001 31.4665 21.0667V28.2667H28.2665V21.8667C28.2665 20.5334 28.2665 19.7334 27.9998 19.4667C27.9998 19.2001 27.7331 18.9334 27.4665 18.6667C27.1998 18.4001 26.6665 18.4001 26.3998 18.4001C25.8665 18.4001 25.3331 18.6667 25.0665 18.6667C24.5331 18.9334 24.2665 19.2001 24.2665 19.7334C23.9998 20.2667 23.9998 21.0667 23.9998 22.1334V28.2667H20.7998V10.6667H23.9998L23.7331 10.9334Z" fill="#EBFFFF"/>
</svg>
