<svg width="40" height="42" viewBox="0 0 40 42" fill="none" xmlns="http://www.w3.org/2000/svg">
<path d="M31.5424 15.0035C33.944 12.0435 35.9461 9.70522 40 9.70522V6C34.0804 6 30.9602 9.7164 28.3002 12.9952C25.8983 15.9561 24.0011 18.2948 19.9464 18.2948C15.8929 18.2948 13.9961 15.9566 11.595 12.9967L11.594 12.9955C8.934 9.71617 5.9192 6 0 6V9.70522C4.05386 9.70522 5.95132 12.0442 8.3528 15.0045C11.0128 18.2838 14.0272 22 19.9464 22C25.8664 22 28.8816 18.2838 31.5416 15.0045L31.5424 15.0035Z" fill="#EDD83F"/>
<path d="M31.5424 33.0035C33.944 30.0435 35.9461 27.7052 40 27.7052V24C34.0804 24 30.9602 27.7164 28.3002 30.9952C25.8983 33.9561 24.0011 36.2948 19.9464 36.2948C15.8929 36.2948 13.9961 33.9566 11.595 30.9967L11.594 30.9955C8.934 27.7162 5.9192 24 0 24V27.7052C4.05386 27.7052 5.95132 30.0442 8.3528 33.0045C11.0128 36.2838 14.0272 40 19.9464 40C25.8664 40 28.8816 36.2838 31.5416 33.0045L31.5424 33.0035Z" fill="#BD0202"/>
</svg>
